<svg
   version="1.1"
   id="svg59"
   viewBox="0 0 546.1333 546.1333"
   xmlns="http://www.w3.org/2000/svg"
   xmlns:svg="http://www.w3.org/2000/svg">
    <path
       style="fill:#C70101;stroke-width:1.06667"
       d="M 253.33332,545.4928 C 193.05744,539.34356 143.83033,519.76258 100.79999,484.81987 71.115587,460.71471 46.144925,429.39104 28.868191,394.58727 15.612069,367.88297 6.7070228,339.3013 2.472221,309.86665 c -2.54246656,-17.67181 -2.54246656,-55.92819 0,-73.6 C 11.05226,176.62976 38.164319,122.14476 80.15454,80.15454 101.61747,58.691607 124.31649,42.385046 151.54603,28.868191 178.25033,15.612069 206.832,6.7070228 236.26665,2.472221 c 17.67181,-2.54246656 55.92819,-2.54246656 73.6,0 59.63689,8.580039 114.12189,35.692098 156.11211,77.682319 21.46294,21.46293 37.7695,44.16195 51.28635,71.39149 13.25612,26.7043 22.16117,55.28597 26.39597,84.72062 2.54247,17.67181 2.54247,55.92819 0,73.6 -8.58004,59.63689 -35.6921,114.12189 -77.68232,156.11211 -41.36191,41.36191 -94.76899,68.3141 -152.70052,77.06119 -13.48592,2.03624 -49.55975,3.51233 -59.94492,2.45285 z m 55.38411,-126.24746 c 5.08388,-1.1791 8.89135,-3.87901 12.08255,-8.56785 l 2.4,-3.52634 v -56.83151 -56.83151 l 28.61414,-0.34407 c 28.45839,-0.3422 28.63517,-0.35849 32.4765,-2.99242 8.3283,-5.71058 10.86986,-17.18261 5.54505,-25.02916 -8.7979,-12.96443 -104.78246,-134.44942 -107.57127,-136.14997 -4.50244,-2.74548 -13.89306,-2.74548 -18.3955,0 -2.78881,1.70055 -98.77337,123.18554 -107.57127,136.14997 -5.32481,7.84655 -2.78325,19.31858 5.54505,25.02916 3.84133,2.63393 4.01811,2.65022 32.4765,2.99242 l 28.61414,0.34407 v 56.83151 56.83151 l 2.4,3.52634 c 3.07986,4.52525 7.05931,7.44877 11.59765,8.52027 5.03801,1.18947 66.68681,1.23032 71.78646,0.0476 z"
       id="path179" />
  </g>
</svg>
